name Walk7.mot
datacolumns 19
datarows 15
range 2.58000000 2.65000000
endheader

                time	   L_ground_force_vx	   L_ground_force_vy	   L_ground_force_vz	   L_ground_force_px	   L_ground_force_py	   L_ground_force_pz	   R_ground_force_vx	   R_ground_force_vy	   R_ground_force_vz	   R_ground_force_px	   R_ground_force_py	   R_ground_force_pz	   L_ground_torque_x	   L_ground_torque_y	   L_ground_torque_z	   R_ground_torque_x	   R_ground_torque_y	   R_ground_torque_z	
          2.58000000	         -0.91155558	          0.87774159	          0.05317841	          0.05300508	          0.00000000	          0.02167667	          0.00000000	          0.00000000	          0.00000000	         -0.00000000	          0.00000000	          0.00000000	          0.00000000	          0.02488573	          0.00000000	          0.00000000	         -0.00000000	          0.00000000	
          2.58500000	          0.13330281	         -0.85460655	          0.00878362	         -0.01792746	          0.00000000	         -0.00687742	         -0.00000000	          0.00000000	         -0.00000000	         -0.00000000	          0.00000000	          0.00000000	          0.00000000	         -0.00457686	          0.00000000	          0.00000000	         -0.00000000	          0.00000000	
          2.59000000	          0.13645208	         -0.33589450	         -0.00329716	         -0.01079991	          0.00000000	         -0.00428881	         -0.00000000	         -0.00000000	         -0.00000000	          0.00000000	          0.00000000	         -0.00000000	          0.00000000	         -0.00398922	          0.00000000	          0.00000000	          0.00000000	          0.00000000	
          2.59500000	          0.02395844	         -0.00184872	         -0.00188158	         -0.00109579	          0.00000000	         -0.00046140	         -0.00000000	         -0.00000000	         -0.00000000	          0.00000000	          0.00000000	         -0.00000000	          0.00000000	         -0.00062667	          0.00000000	          0.00000000	          0.00000000	          0.00000000	
          2.60000000	         -0.00806034	          0.03592825	         -0.00017205	          0.00086337	          0.00000000	          0.00033547	          0.00000000	          0.00000000	          0.00000000	          0.00000000	          0.00000000	         -0.00000000	          0.00000000	          0.00025642	          0.00000000	          0.00000000	          0.00000000	          0.00000000	
          2.60500000	         -0.00486950	          0.01031763	          0.00015573	          0.00036202	          0.00000000	          0.00014453	          0.00000000	          0.00000000	          0.00000000	         -0.00000000	          0.00000000	          0.00000000	          0.00000000	          0.00014021	          0.00000000	          0.00000000	         -0.00000000	          0.00000000	
          2.61000000	         -0.00049655	         -0.00099333	          0.00006252	          0.00000826	          0.00000000	          0.00000430	         -0.00000000	          0.00000000	          0.00000000	         -0.00000000	          0.00000000	          0.00000000	          0.00000000	          0.00001166	          0.00000000	          0.00000000	         -0.00000000	          0.00000000	
          2.61500000	          0.00038858	         -0.00139931	          0.00000071	         -0.00003696	          0.00000000	         -0.00001447	         -0.00000000	         -0.00000000	         -0.00000000	         -0.00000000	          0.00000000	          0.00000000	          0.00000000	         -0.00001193	          0.00000000	          0.00000000	         -0.00000000	          0.00000000	
          2.62000000	          0.00016330	         -0.00028624	         -0.00000659	         -0.00001130	          0.00000000	         -0.00000454	         -0.00000000	         -0.00000000	         -0.00000000	          0.00000000	          0.00000000	         -0.00000000	          0.00000000	         -0.00000462	          0.00000000	          0.00000000	          0.00000000	          0.00000000	
          2.62500000	          0.00000382	          0.00007124	         -0.00000193	          0.00000083	          0.00000000	          0.00000029	          0.00000000	         -0.00000000	          0.00000000	          0.00000000	          0.00000000	         -0.00000000	          0.00000000	         -0.00000001	          0.00000000	          0.00000000	          0.00000000	          0.00000000	
          2.63000000	         -0.00001665	          0.00005112	          0.00000017	          0.00000146	          0.00000000	          0.00000057	          0.00000000	          0.00000000	          0.00000000	         -0.00000000	          0.00000000	          0.00000000	          0.00000000	          0.00000050	          0.00000000	          0.00000000	          0.00000000	          0.00000000	
          2.63500000	         -0.00000510	          0.00000666	          0.00000026	          0.00000032	          0.00000000	          0.00000013	          0.00000000	          0.00000000	          0.00000000	         -0.00000000	          0.00000000	          0.00000000	          0.00000000	          0.00000014	          0.00000000	          0.00000000	         -0.00000000	          0.00000000	
          2.64000000	          0.00000037	         -0.00000367	          0.00000005	         -0.00000007	          0.00000000	         -0.00000003	         -0.00000000	          0.00000000	         -0.00000000	         -0.00000000	          0.00000000	          0.00000000	          0.00000000	         -0.00000001	          0.00000000	          0.00000000	         -0.00000000	          0.00000000	
          2.64500000	          0.00000066	         -0.00000176	         -0.00000001	         -0.00000005	          0.00000000	         -0.00000002	         -0.00000000	         -0.00000000	         -0.00000000	          0.00000000	          0.00000000	         -0.00000000	          0.00000000	         -0.00000002	          0.00000000	          0.00000000	          0.00000000	          0.00000000	
          2.65000000	          0.00000015	         -0.00000010	         -0.00000001	         -0.00000001	          0.00000000	         -0.00000000	         -0.00000000	         -0.00000000	         -0.00000000	          0.00000000	          0.00000000	         -0.00000000	          0.00000000	         -0.00000000	          0.00000000	          0.00000000	          0.00000000	          0.00000000	
